# xmcd
# Track frame offsets:
# 150
# 18267
# 33086
# 49404
# 65216
# 82418
# 97205
# 112449
# 134514
# 153927
# 168526
#
# Disc length: 2558 seconds
# Revision: 0
# Processed by: cddbd v1.5.2PL0 Copyright (c) Steve Scherf et al.
# Submitted via: VisiTrax 2.10.0.248 - For more info visit www.synapsa.com
#
DISCID=a509fc0b
DTITLE=Paul Eason - Keepin' It 'Tween the Lines
DYEAR=2004
DGENRE=Country
TTITLE0=One More Dance
TTITLE1=Driftin' By
TTITLE2=Hey Wade
TTITLE3=Close Don't Count for Nothing
TTITLE4=Keepin' It 'Tween the Lines
TTITLE5=All I Need
TTITLE6=Jennifer's Song
TTITLE7=Ballad of Old Mexico
TTITLE8=Abilene
TTITLE9=Hundred Dollar Bills
TTITLE10='Till the Moving Buries Me
EXTD=Submitted by Larry@YourTexasMusic.com
EXTT0=
EXTT1=
EXTT2=
EXTT3=
EXTT4=
EXTT5=
EXTT6=
EXTT7=
EXTT8=
EXTT9=
EXTT10=
PLAYORDER=
